<mxfile host="app.diagrams.net" modified="2023-06-18T23:41:57.833Z" agent="Mozilla/5.0 (Windows NT 10.0; Win64; x64) AppleWebKit/537.36 (KHTML, like Gecko) Chrome/114.0.0.0 Safari/537.36" version="21.5.0" etag="jhxUynqr-uc6ET_Uz5jG" type="github">
  <diagram name="페이지-1" id="uiQjjqewYHsC5B56Kojn">
    <mxGraphModel>
      <root>
        <mxCell id="0" />
        <mxCell id="1" parent="0" />
      </root>
    </mxGraphModel>
  </diagram>
</mxfile>
